<svg width="17" height="16" viewBox="0 0 17 16" fill="none" xmlns="http://www.w3.org/2000/svg">
<path d="M15.1666 10.7935C15.1666 13.2202 13.72 14.6668 11.2933 14.6668H10.5C10.1333 14.6668 9.83331 14.3668 9.83331 14.0002V10.1535C9.83331 9.9735 9.97997 9.82017 10.16 9.82017L11.3333 9.80017C11.4266 9.7935 11.5067 9.72684 11.5267 9.6335L11.76 8.36017C11.78 8.24017 11.6866 8.12683 11.56 8.12683L10.14 8.14683C9.95331 8.14683 9.80665 8.00017 9.79999 7.82017L9.77332 6.18683C9.77332 6.08016 9.85997 5.98684 9.97331 5.98684L11.5733 5.96016C11.6866 5.96016 11.7733 5.87351 11.7733 5.76017L11.7466 4.16016C11.7466 4.04682 11.66 3.96016 11.5467 3.96016L9.74664 3.98684C8.63998 4.00684 7.75999 4.9135 7.77999 6.02016L7.81331 7.8535C7.81998 8.04016 7.67332 8.18684 7.48665 8.1935L6.68665 8.20683C6.57331 8.20683 6.48665 8.29349 6.48665 8.40682L6.50665 9.6735C6.50665 9.78684 6.59331 9.87349 6.70664 9.87349L7.50665 9.86017C7.69332 9.86017 7.83997 10.0068 7.84664 10.1868L7.90664 13.9868C7.9133 14.3602 7.6133 14.6668 7.23997 14.6668H5.70664C3.27998 14.6668 1.83331 13.2202 1.83331 10.7868V5.20683C1.83331 2.78016 3.27998 1.3335 5.70664 1.3335H11.2933C13.72 1.3335 15.1666 2.78016 15.1666 5.20683V10.7935V10.7935Z" fill="white"/>
</svg>
