<svg width="16" height="16" viewBox="0 0 16 16" fill="none" xmlns="http://www.w3.org/2000/svg">
<path d="M14.4933 7.38017C14.46 7.04017 14.1733 6.78682 13.8333 6.78682H8.80001C8.43334 6.78682 8.13334 7.08682 8.13334 7.45349V8.59351C8.13334 8.96017 8.43334 9.26017 8.80001 9.26017H11.8067C11.7333 9.87351 11.3333 10.8002 10.4467 11.4202C9.88001 11.8135 9.12668 12.0868 8.13334 12.0868C8.08668 12.0868 8.04668 12.0868 8.00001 12.0802C6.30001 12.0268 4.86001 10.8868 4.34001 9.32017C4.20001 8.90017 4.12001 8.46016 4.12001 8.00016C4.12001 7.54016 4.20001 7.09349 4.33334 6.68016C4.37334 6.56016 4.42001 6.44017 4.47334 6.32017C5.08668 4.94017 6.42668 3.96683 8.00001 3.92017C8.04001 3.9135 8.08668 3.91349 8.13334 3.91349C9.08667 3.91349 9.80001 4.22682 10.3 4.57349C10.56 4.75349 10.9067 4.71349 11.1333 4.49349L12.06 3.58683C12.3533 3.30017 12.3267 2.81349 11.9933 2.57349C10.9333 1.79349 9.64001 1.3335 8.13334 1.3335C8.08668 1.3335 8.04668 1.3335 8.00001 1.34017C5.44668 1.38684 3.25334 2.86684 2.18001 5.00684C1.72667 5.9135 1.46667 6.92683 1.46667 8.00016C1.46667 9.0735 1.72667 10.0868 2.18001 10.9935H2.18668C3.26001 13.1335 5.45334 14.6135 8.00001 14.6602C8.04668 14.6668 8.08668 14.6668 8.13334 14.6668C9.93334 14.6668 11.4467 14.0735 12.5467 13.0535C13.8067 11.8868 14.5333 10.1802 14.5333 8.14683C14.5333 7.86016 14.52 7.6135 14.4933 7.38017Z" fill="white"/>
</svg>
