<svg width="17" height="16" viewBox="0 0 17 16" fill="none" xmlns="http://www.w3.org/2000/svg">
<path fill-rule="evenodd" clip-rule="evenodd" d="M15.1666 8.00016C15.1666 11.6821 12.1819 14.6668 8.49998 14.6668C4.81808 14.6668 1.83331 11.6821 1.83331 8.00016C1.83331 4.31826 4.81808 1.3335 8.49998 1.3335C12.1819 1.3335 15.1666 4.31826 15.1666 8.00016ZM6.35135 11.7267C6.4905 11.7267 6.60312 11.6139 6.60312 11.475V6.98402C6.60312 6.84486 6.49025 6.73224 6.35135 6.73224H5.27991C5.14076 6.73224 5.02814 6.84511 5.02814 6.98402V11.475C5.02814 11.6141 5.14101 11.7267 5.27991 11.7267H6.35135ZM4.79788 5.29115C4.79788 5.85327 5.25363 6.30902 5.81576 6.30902C6.37788 6.30902 6.83363 5.85327 6.83363 5.29115C6.83363 4.72903 6.37788 4.27327 5.81576 4.27327C5.25363 4.27327 4.79788 4.72903 4.79788 5.29115ZM11.9703 11.7267C12.0982 11.7267 12.2018 11.6231 12.2018 11.4952L12.2018 9.30559C12.2019 8.35752 12.202 6.65691 10.3715 6.65691C9.54036 6.65691 9.14993 6.96124 8.88714 7.35543V6.96374C8.88714 6.83585 8.78353 6.73224 8.65564 6.73224H7.54366C7.41577 6.73224 7.31216 6.83585 7.31216 6.96374V11.4952C7.31216 11.6231 7.41577 11.7267 7.54366 11.7267H8.65564C8.78353 11.7267 8.88714 11.6231 8.88714 11.4952V9.06556C8.91593 8.7392 9.05959 8.01165 9.76812 8.01165C10.6141 8.01165 10.5974 8.92358 10.5903 9.30778C10.5898 9.33832 10.5893 9.36552 10.5893 9.38867V11.4952C10.5893 11.6231 10.6929 11.7267 10.8208 11.7267H11.9703Z" fill="white"/>
</svg>
