<svg width="16" height="16" viewBox="0 0 16 16" fill="none" xmlns="http://www.w3.org/2000/svg">
<path fill-rule="evenodd" clip-rule="evenodd" d="M7.99998 14.6668C11.6819 14.6668 14.6666 11.6821 14.6666 8.00016C14.6666 4.31826 11.6819 1.3335 7.99998 1.3335C4.31808 1.3335 1.33331 4.31826 1.33331 8.00016C1.33331 11.6821 4.31808 14.6668 7.99998 14.6668ZM7.99998 9.00278C8.55284 9.00278 9.0026 8.55302 9.0026 8.00016C9.0026 7.44731 8.55284 6.99754 7.99998 6.99754C7.44712 6.99754 6.99736 7.44731 6.99736 8.00016C6.99736 8.55302 7.44712 9.00278 7.99998 9.00278ZM4.66665 8.00016C4.66665 6.16207 6.16188 4.66683 7.99998 4.66683C9.83807 4.66683 11.3333 6.16207 11.3333 8.00016C11.3333 8.26064 11.3116 8.47135 11.2631 8.68278L11.2624 8.68635C11.2624 8.68707 11.2381 8.78445 11.225 8.82707C11.1426 9.09064 10.9933 9.30992 10.7936 9.46183C10.5997 9.60873 10.3595 9.68992 10.1169 9.68992C10.0871 9.68992 10.0569 9.68873 10.0274 9.68635C9.68284 9.65873 9.38022 9.47754 9.1945 9.1885C8.87522 9.50969 8.45165 9.68611 7.99998 9.68611C7.07022 9.68611 6.31403 8.92992 6.31403 8.00016C6.31403 7.0704 7.07022 6.31421 7.99998 6.31421C8.92974 6.31421 9.68593 7.0704 9.68593 8.00016V8.30207V8.54373C9.68736 8.86088 9.90022 8.9904 10.0821 9.00516C10.2628 9.01897 10.5038 8.91373 10.5876 8.56969C10.6288 8.38111 10.65 8.18945 10.65 8.00016C10.65 6.53897 9.46117 5.35016 7.99998 5.35016C6.53879 5.35016 5.34998 6.53897 5.34998 8.00016C5.34998 9.46135 6.53879 10.6502 7.99998 10.6502C8.50855 10.6502 9.00331 10.5049 9.43046 10.2299L9.43808 10.2252L9.88712 10.7471L9.8776 10.7537C9.3226 11.133 8.67331 11.3335 7.99998 11.3335C6.16188 11.3335 4.66665 9.83826 4.66665 8.00016Z" fill="white"/>
</svg>
