<svg xmlns="http://www.w3.org/2000/svg" width="53" height="38" fill="none"><g clip-path="url(#clip0_14_457)" fill="#fff"><path d="M24.04 4.919L13.73 8.786l15.252 8.163v16.54l9.881-3.866v-14.5l2.255-.86L24.041 4.92zm12.675 11.278v11.922l-5.478 2.148V15.66L19.1 9.215l4.833-1.826 10.849 5.908 2.04.966-.107 1.934z"/><path d="M47.456 11.793l5.262-2.041-17.4-9.345-34.8 13.426 5.263 2.793-5.263 2.148 5.263 2.793-5.263 2.148 5.263 2.793-5.263 2.04 17.508 9.345 34.8-13.426-5.263-2.793 5.263-2.04-5.263-2.793 5.263-2.04-5.37-3.008zm-2.364 5.8l3.008 1.61-10.74 4.19v2.148l7.84-3.008 3.007 1.611-10.74 4.19v1.933h-5.049l-14.177 5.478L5.35 28.87l2.9-1.074 9.882 5.263 12.89-5.048v-2.148l-12.782 4.94L5.35 23.93l2.9-1.074 9.882 5.263 12.89-5.049v-2.148L18.24 25.863 5.35 18.989l2.9-1.074 9.882 5.263 12.89-4.94v-2.043l-12.675 4.941L5.46 14.263 35.104 2.556 47.993 9.43l-11.278 4.403h.107v2.041l8.163-3.222 3.008 1.611-10.741 4.189V20.6l7.84-3.007z"/></g><defs><clipPath id="clip0_14_457"><path fill="#fff" transform="translate(.518 .407)" d="M0 0h52.2v37.485H0z"/></clipPath></defs></svg>