<svg width="17" height="16" viewBox="0 0 17 16" fill="none" xmlns="http://www.w3.org/2000/svg">
<path fill-rule="evenodd" clip-rule="evenodd" d="M6.83331 1.3335C4.07189 1.3335 1.83331 3.57207 1.83331 6.33349V9.66683C1.83331 12.4283 4.07189 14.6668 6.83331 14.6668H10.1666C12.9281 14.6668 15.1666 12.4283 15.1666 9.66683V6.3335C15.1666 3.57207 12.9281 1.3335 10.1667 1.3335H6.83331ZM6.09993 5.73117C6.09993 4.40299 7.17114 3.32625 8.49258 3.32625C9.81402 3.32625 10.8852 4.40299 10.8852 5.73117C10.8852 7.05939 9.81402 8.13619 8.49258 8.13619C7.17114 8.13619 6.09993 7.05939 6.09993 5.73117ZM7.50352 5.73121C7.50352 6.28024 7.94635 6.72538 8.49258 6.72538C9.03882 6.72538 9.48165 6.28024 9.48165 5.73121C9.48165 5.18217 9.03882 4.73707 8.49258 4.73707C7.94635 4.73707 7.50352 5.18217 7.50352 5.73121ZM10.8995 9.37324C10.8691 9.39771 10.2951 9.85365 9.33726 10.0498L10.7831 11.4901C11.0374 11.7453 11.0377 12.1593 10.7838 12.4149C10.53 12.6704 10.1181 12.6708 9.8638 12.4156L8.46009 11.0417L7.18515 12.4068C7.0575 12.5399 6.88722 12.6068 6.71677 12.6068C6.5542 12.6068 6.39149 12.546 6.26524 12.4236C6.00659 12.1729 5.99909 11.759 6.2485 11.499L7.62089 10.0574C6.63617 9.86587 6.03847 9.39806 6.00769 9.37324C5.7274 9.1473 5.68237 8.73576 5.90716 8.45399C6.13191 8.17226 6.54132 8.12701 6.82168 8.35291C6.82761 8.35773 7.45258 8.82964 8.4596 8.83047C8.45965 8.83046 8.45984 8.83045 8.46003 8.83044C8.46022 8.83045 8.46041 8.83046 8.46046 8.83047C9.46753 8.82965 10.0796 8.35773 10.0855 8.35291C10.3659 8.12701 10.7753 8.17226 11 8.45399C11.2248 8.73576 11.1798 9.1473 10.8995 9.37324ZM8.46003 8.83044C8.46008 8.83043 8.46014 8.83043 8.46019 8.83043C8.46051 8.83041 8.46072 8.8304 8.46003 8.8304C8.45923 8.8304 8.45963 8.83042 8.46003 8.83044Z" fill="white"/>
</svg>
