<svg width="16" height="16" viewBox="0 0 16 16" fill="none" xmlns="http://www.w3.org/2000/svg">
<path fill-rule="evenodd" clip-rule="evenodd" d="M7.99998 14.6668C11.6819 14.6668 14.6666 11.6821 14.6666 8.00016C14.6666 4.31826 11.6819 1.3335 7.99998 1.3335C4.31808 1.3335 1.33331 4.31826 1.33331 8.00016C1.33331 11.6821 4.31808 14.6668 7.99998 14.6668ZM11.096 6.47446C11.096 6.40418 11.096 6.33453 11.0912 6.26489C11.4083 6.03541 11.6824 5.75138 11.9 5.4253C11.6044 5.55657 11.2905 5.64258 10.9692 5.68045C11.3075 5.47794 11.5607 5.15924 11.6817 4.78406C11.3634 4.97277 11.0155 5.10596 10.6525 5.17753C10.0388 4.52506 9.01214 4.4936 8.35934 5.10725C7.93827 5.50297 7.75982 6.09286 7.89045 6.6558C6.5871 6.59064 5.37297 5.97508 4.55008 4.9625C4.12001 5.70324 4.33954 6.65066 5.05171 7.12662C4.79367 7.11892 4.54141 7.04927 4.31611 6.92378V6.94432C4.31611 7.71587 4.86011 8.38022 5.61625 8.53299C5.37779 8.59814 5.12745 8.60777 4.8845 8.56091C5.09696 9.22109 5.70515 9.6733 6.39871 9.68646C5.82454 10.1374 5.11558 10.3823 4.38575 10.3816C4.25673 10.3813 4.12804 10.3736 3.99998 10.3582C4.74136 10.8338 5.60373 11.0861 6.4844 11.0848V11.0861C9.46563 11.0861 11.096 8.61611 11.096 6.47446Z" fill="white"/>
</svg>
