<svg width="16" height="16" viewBox="0 0 16 16" fill="none" xmlns="http://www.w3.org/2000/svg">
<path fill-rule="evenodd" clip-rule="evenodd" d="M6.33331 1.3335C3.57189 1.3335 1.33331 3.57207 1.33331 6.33349V9.66683C1.33331 12.4283 3.57189 14.6668 6.33331 14.6668H9.66665C12.4281 14.6668 14.6666 12.4283 14.6666 9.66683V6.3335C14.6666 3.57207 12.4281 1.3335 9.66665 1.3335H6.33331ZM8.43351 10.6673H7.8881C7.8881 10.6673 6.68474 10.7397 5.62481 9.63616C4.46897 8.4327 3.44828 6.04461 3.44828 6.04461C3.44828 6.04461 3.38941 5.88809 3.45338 5.81233C3.52529 5.72721 3.72098 5.72175 3.72098 5.72175L5.02482 5.71323C5.02482 5.71323 5.14766 5.7337 5.23557 5.79828C5.30806 5.85159 5.34864 5.95117 5.34864 5.95117C5.34864 5.95117 5.55939 6.48414 5.83842 6.96624C6.38312 7.90744 6.63683 8.11328 6.82175 8.01245C7.09124 7.86548 7.01043 6.68197 7.01043 6.68197C7.01043 6.68197 7.01534 6.25243 6.8747 6.06109C6.76584 5.91296 6.56052 5.86962 6.46981 5.85753C6.39642 5.84773 6.51685 5.67744 6.67295 5.601C6.90757 5.48606 7.32185 5.47957 7.81144 5.48455C8.19287 5.48844 8.30273 5.51225 8.45185 5.54824C8.79791 5.63178 8.78712 5.8995 8.76384 6.47716C8.75689 6.64976 8.74881 6.85003 8.74881 7.08133C8.74881 7.13342 8.74729 7.18895 8.74573 7.24606C8.73763 7.54187 8.72835 7.88043 8.9231 8.00628C9.02296 8.0708 9.26729 8.01588 9.87824 6.97848C10.1678 6.48677 10.385 5.90869 10.385 5.90869C10.385 5.90869 10.4323 5.80561 10.5061 5.76149C10.5814 5.71638 10.6832 5.73023 10.6832 5.73023L12.0553 5.72175C12.0553 5.72175 12.4676 5.67258 12.5343 5.85869C12.6043 6.05402 12.3802 6.5101 11.8197 7.25719C11.2874 7.96671 11.0286 8.22748 11.053 8.45846C11.0707 8.62684 11.2388 8.77939 11.561 9.07842C12.2364 9.70531 12.4165 10.0345 12.4592 10.1127C12.4627 10.119 12.4652 10.1237 12.4671 10.1267C12.7694 10.6279 12.1319 10.6673 12.1319 10.6673L10.9133 10.6843C10.9133 10.6843 10.6515 10.7361 10.3068 10.4994C10.1267 10.3758 9.95053 10.1738 9.78269 9.98136C9.52602 9.68709 9.28879 9.4151 9.08629 9.47932C8.74669 9.58709 8.75736 10.3189 8.75736 10.3189C8.75736 10.3189 8.75984 10.4752 8.68243 10.5585C8.59821 10.6491 8.43351 10.6673 8.43351 10.6673Z" fill="white"/>
</svg>
