<svg width="16" height="16" viewBox="0 0 16 16" fill="none" xmlns="http://www.w3.org/2000/svg">
<path fill-rule="evenodd" clip-rule="evenodd" d="M7.94433 1.22168C4.23097 1.22168 1.22211 4.23122 1.22211 7.9439C1.22211 11.6566 4.23097 14.6661 7.94433 14.6661C11.6563 14.6661 14.6665 11.6566 14.6665 7.9439C14.6665 4.23122 11.6563 1.22168 7.94433 1.22168ZM8.18364 5.03052H8.80478V11.9289H10.1949V3.95093H8.17625C6.14278 3.95093 5.07058 5.00094 5.07058 6.53898C5.07058 7.76579 5.65542 8.49112 6.69736 9.23796L4.88572 11.9363H6.39419L8.41287 8.91999L7.7104 8.44675C6.86004 7.86931 6.44595 7.41892 6.44595 6.45764C6.44595 5.60728 7.0449 5.03052 8.18364 5.03052Z" fill="white"/>
</svg>
